<mxGraphModel dx="1200" dy="800" grid="1" gridSize="10" guides="1" tooltips="1" connect="1" arrows="1" fold="1" page="1" pageScale="1" pageWidth="850" pageHeight="1100" math="0" shadow="0">
  <root>
    <mxCell id="0" />
    <mxCell id="1" parent="0" />
    <mxCell id="2" value="เริ่มต้น" style="ellipse;whiteSpace=wrap;html=1;fillColor=#d5e8d4;strokeColor=#82b366;fontStyle=1" vertex="1" parent="1">
      <mxGeometry x="375" y="20" width="100" height="40" as="geometry" />
    </mxCell>
    
    <mxCell id="3" value="เตรียมวัตถุดิบ&lt;br&gt;(หมูกรอบ/ใบกระเพรา/พริก/กระเทียม/ไข่เยี่ยวม้า)" style="process;whiteSpace=wrap;html=1;fillColor=#f8cecc;strokeColor=#b85450;" vertex="1" parent="1">
      <mxGeometry x="340" y="90" width="170" height="50" as="geometry" />
    </mxCell>
    
    <mxCell id="4" value="ตวงเครื่องปรุงและเตรียมอุปกรณ์ครัว&lt;br&gt;(จาน ช้อน ตะหลิว กระทะ)" style="process;whiteSpace=wrap;html=1;fillColor=#f8cecc;strokeColor=#b85450;" vertex="1" parent="1">
      <mxGeometry x="330" y="170" width="190" height="50" as="geometry" />
    </mxCell>
    
    <mxCell id="5" value="ตักข้าวสวยใส่จานเตรียมไว้" style="process;whiteSpace=wrap;html=1;fillColor=#f8cecc;strokeColor=#b85450;" vertex="1" parent="1">
      <mxGeometry x="350" y="250" width="150" height="40" as="geometry" />
    </mxCell>
    
    <mxCell id="6" value="หมูกรอบพร้อมใช้แล้ว&lt;br&gt;(หั่นชิ้นเรียบร้อย)" style="rhombus;whiteSpace=wrap;html=1;fillColor=#dae8fc;strokeColor=#6c8ebf;" vertex="1" parent="1">
      <mxGeometry x="340" y="320" width="170" height="80" as="geometry" />
    </mxCell>
    
    <mxCell id="7" value="ทอดหมูสามชั้นให้กรอบ&lt;br&gt;แล้วหั่นเป็นชิ้นพอดีคำ" style="process;whiteSpace=wrap;html=1;fillColor=#f8cecc;strokeColor=#b85450;" vertex="1" parent="1">
      <mxGeometry x="560" y="330" width="150" height="60" as="geometry" />
    </mxCell>
    
    <mxCell id="8" value="นำไข่เยี่ยวม้าลงทอดในน้ำมันร้อน&lt;br&gt;ตักพักไว้เมื่อกรอบนอกนุ่มใน" style="process;whiteSpace=wrap;html=1;fillColor=#f8cecc;strokeColor=#b85450;" vertex="1" parent="1">
      <mxGeometry x="330" y="440" width="190" height="60" as="geometry" />
    </mxCell>
    
    <mxCell id="9" value="ตำ/สับพริกกับกระเทียม&lt;br&gt;แล้วนำไปผัดกับน้ำมันจนหอม" style="process;whiteSpace=wrap;html=1;fillColor=#f8cecc;strokeColor=#b85450;" vertex="1" parent="1">
      <mxGeometry x="340" y="540" width="170" height="60" as="geometry" />
    </mxCell>
    
    <mxCell id="10" value="ใส่หมูกรอบและไข่เยี่ยวม้าที่ทอดแล้วลงไป&lt;br&gt;ปรุงรสด้วยน้ำปลา น้ำตาล ซีอิ๊ว" style="process;whiteSpace=wrap;html=1;fillColor=#f8cecc;strokeColor=#b85450;" vertex="1" parent="1">
      <mxGeometry x="320" y="640" width="210" height="60" as="geometry" />
    </mxCell>
    
    <mxCell id="11" value="รสชาติ&lt;br&gt;ถูกปากแล้ว" style="rhombus;whiteSpace=wrap;html=1;fillColor=#dae8fc;strokeColor=#6c8ebf;" vertex="1" parent="1">
      <mxGeometry x="375" y="740" width="100" height="60" as="geometry" />
    </mxCell>
    
    <mxCell id="12" value="เติมเครื่องปรุง/น้ำเปล่าเล็กน้อย&lt;br&gt;ผัดต่อจนได้รสที่ต้องการ" style="process;whiteSpace=wrap;html=1;fillColor=#f8cecc;strokeColor=#b85450;" vertex="1" parent="1">
      <mxGeometry x="210" y="740" width="140" height="60" as="geometry" />
    </mxCell>
    
    <mxCell id="13" value="ใส่ใบกระเพรากรอบ&lt;br&gt;ผัดเร็ว ๆ แล้วปิดไฟ" style="process;whiteSpace=wrap;html=1;fillColor=#f8cecc;strokeColor=#b85450;" vertex="1" parent="1">
      <mxGeometry x="350" y="840" width="150" height="40" as="geometry" />
    </mxCell>
    
    <mxCell id="14" value="ตักผัดกระเพราใส่จานข้าวสวย&lt;br&gt;พร้อมเสิร์ฟ" style="shape=parallelogram;perimeter=parallelogramPerimeter;whiteSpace=wrap;html=1;fillColor=#fff2cc;strokeColor=#d6b656;" vertex="1" parent="1">
      <mxGeometry x="340" y="920" width="170" height="50" as="geometry" />
    </mxCell>
    
    <mxCell id="15" value="สิ้นสุด" style="ellipse;whiteSpace=wrap;html=1;fillColor=#d5e8d4;strokeColor=#82b366;fontStyle=1" vertex="1" parent="1">
      <mxGeometry x="375" y="1000" width="100" height="40" as="geometry" />
    </mxCell>
    
    <mxCell id="16" value="" style="endArrow=classic;html=1;exitX=0.5;exitY=1;entryX=0.5;entryY=0;" edge="1" parent="1" source="2" target="3">
      <mxGeometry width="50" height="50" relative="1" as="geometry" />
    </mxCell>
    <mxCell id="17" value="" style="endArrow=classic;html=1;exitX=0.5;exitY=1;entryX=0.5;entryY=0;" edge="1" parent="1" source="3" target="4">
      <mxGeometry width="50" height="50" relative="1" as="geometry" />
    </mxCell>
    <mxCell id="18" value="" style="endArrow=classic;html=1;exitX=0.5;exitY=1;entryX=0.5;entryY=0;" edge="1" parent="1" source="4" target="5">
      <mxGeometry width="50" height="50" relative="1" as="geometry" />
    </mxCell>
    <mxCell id="19" value="" style="endArrow=classic;html=1;exitX=0.5;exitY=1;entryX=0.5;entryY=0;" edge="1" parent="1" source="5" target="6">
      <mxGeometry width="50" height="50" relative="1" as="geometry" />
    </mxCell>
    
    <mxCell id="20" value="ใช่" style="endArrow=classic;html=1;exitX=0.5;exitY=1;entryX=0.5;entryY=0;" edge="1" parent="1" source="6" target="8">
      <mxGeometry width="50" height="50" relative="1" as="geometry" />
    </mxCell>
    <mxCell id="21" value="ไม่" style="endArrow=classic;html=1;exitX=1;exitY=0.5;entryX=0.5;entryY=0;" edge="1" parent="1" source="6" target="7">
      <mxGeometry width="50" height="50" relative="1" as="geometry">
        <mxPoint x="510" y="360" as="sourcePoint" />
        <mxPoint x="590" y="360" as="targetPoint" />
      </mxGeometry>
    </mxCell>
    <mxCell id="22" value="" style="endArrow=classic;html=1;exitX=0.5;exitY=1;entryX=0.5;entryY=0;" edge="1" parent="1" source="7" target="8">
      <mxGeometry width="50" height="50" relative="1" as="geometry">
        <mxPoint x="635" y="390" as="sourcePoint" />
        <mxPoint x="425" y="440" as="targetPoint" />
        <Array as="points">
          <mxPoint x="635" y="420" />
          <mxPoint x="425" y="420" />
        </Array>
      </mxGeometry>
    </mxCell>
    
    <mxCell id="23" value="" style="endArrow=classic;html=1;exitX=0.5;exitY=1;entryX=0.5;entryY=0;" edge="1" parent="1" source="8" target="9">
      <mxGeometry width="50" height="50" relative="1" as="geometry" />
    </mxCell>
    <mxCell id="24" value="" style="endArrow=classic;html=1;exitX=0.5;exitY=1;entryX=0.5;entryY=0;" edge="1" parent="1" source="9" target="10">
      <mxGeometry width="50" height="50" relative="1" as="geometry" />
    </mxCell>
    <mxCell id="25" value="" style="endArrow=classic;html=1;exitX=0.5;exitY=1;entryX=0.5;entryY=0;" edge="1" parent="1" source="10" target="11">
      <mxGeometry width="50" height="50" relative="1" as="geometry" />
    </mxCell>
    
    <mxCell id="26" value="ไม่" style="endArrow=classic;html=1;exitX=0;exitY=0.5;entryX=0.5;entryY=0.5;" edge="1" parent="1" source="11" target="12">
      <mxGeometry width="50" height="50" relative="1" as="geometry">
        <mxPoint x="375" y="770" as="sourcePoint" />
        <mxPoint x="350" y="770" as="targetPoint" />
      </mxGeometry>
    </mxCell>
    <mxCell id="27" value="" style="endArrow=classic;html=1;exitX=0.5;exitY=1;entryX=0;entryY=0.5;" edge="1" parent="1" source="12">
      <mxGeometry width="50" height="50" relative="1" as="geometry">
        <mxPoint x="350" y="800" as="sourcePoint" />
        <mxPoint x="375" y="770" as="targetPoint" />
        <Array as="points">
          <mxPoint x="280" y="810" />
          <mxPoint x="280" y="770" />
          <mxPoint x="375" y="770" />
        </Array>
      </mxGeometry>
    </mxCell>
    <mxCell id="28" value="ใช่" style="endArrow=classic;html=1;exitX=0.5;exitY=1;entryX=0.5;entryY=0;" edge="1" parent="1" source="11" target="13">
      <mxGeometry width="50" height="50" relative="1" as="geometry" />
    </mxCell>
    
    <mxCell id="29" value="" style="endArrow=classic;html=1;exitX=0.5;exitY=1;entryX=0.5;entryY=0;" edge="1" parent="1" source="13" target="14">
      <mxGeometry width="50" height="50" relative="1" as="geometry" />
    </mxCell>
    <mxCell id="30" value="" style="endArrow=classic;html=1;exitX=0.5;exitY=1;entryX=0.5;entryY=0;" edge="1" parent="1" source="14" target="15">
      <mxGeometry width="50" height="50" relative="1" as="geometry" />
    </mxCell>
    
  </root>
</mxGraphModel>
```eof
